$MeshFormat
2.2 0 8
$EndMeshFormat
$PhysicalNames
6
0 5 "separation-inf"
0 6 "separation-sup"
1 3 "pressure"
1 4 "fixed"
2 1 "body"
2 2 "cover"
$EndPhysicalNames
$Nodes
87
1 0 0 0
2 0.06527036446661426 0 0
3 0.4040937093914942 0.4037939385690081 0
4 0.4754645580790971 0.439378131075811 0
5 0.6794493926343603 0.4500685232622709 0
6 0.7306981537033913 0.4014352649197235 0
7 0.7306981537033914 0 0
8 0.7806981537033915 0 0
9 0.7806981537033915 0.4014352649197235 0
10 0.6768325948222129 0.4999999999999999 0
11 0.4728477602669499 0.4893096078135399 0
12 0.3657914872355453 0.4359333190533355 0
13 0.1217409219540942 0.06729898976150128 0
14 0.1782114794415742 0.1345979795230026 0
15 0.2346820369290541 0.2018969692845038 0
16 0.2911525944165341 0.2691959590460052 0
17 0.3476231519040141 0.3364949488075065 0
18 0.5434595029308515 0.4429415951379643 0
19 0.6114544477826059 0.4465050592001177 0
20 0.7155210215396773 0.4367609967880217 0
21 0.7306981537033913 0.3211482119357789 0
22 0.7306981537033913 0.2408611589518342 0
23 0.7306981537033913 0.1605741059678895 0
24 0.7306981537033914 0.08028705298394478 0
25 0.7806981537033915 0.0802870529839446 0
26 0.7806981537033915 0.1605741059678893 0
27 0.7806981537033915 0.240861158951834 0
28 0.7806981537033915 0.3211482119357787 0
29 0.7499387503243652 0.4730297153386361 0
30 0.6088376499704585 0.4964365359378466 0
31 0.5408427051187041 0.4928730718756933 0
32 0.4137684817369207 0.4737553318406579 0
33 0.3135355604876102 0.3736571306171447 0
34 0.2612796337396752 0.3113809421809539 0
35 0.2090237069917401 0.2491047537447631 0
36 0.1567677802438051 0.1868285653085723 0
37 0.10451185349587 0.1245523768723815 0
38 0.05225592674793494 0.06227618843619065 0
39 0.1484488381212114 0 0
40 0.2316273117758086 0 0
41 0.3148057854304058 0 0
42 0.3979842590850029 0 0
43 0.4811627327396 0 0
44 0.5643412063941972 0 0
45 0.6475196800487942 0 0
46 0.7556981537033914 0.3612917384277511 0
47 0.357760977254666 0.3874698342617487 0
48 0.7556981537033914 0.04014352649197234 0
49 0.7556981537033914 0.120430579475917 0
50 0.7556981537033914 0.2810046854438064 0
51 0.7556981537033913 0.2007176324598618 0
52 0.6441435213024095 0.4732525296000588 0
53 0.5081536315989007 0.4661256014757522 0
54 0.5761485764506551 0.4696890655379055 0
55 0.5235630882199005 0.07428439401465559 0
56 0.4759123828830518 0.3632809113682434 0
57 0.6623518375524096 0.2708622483983897 0
58 0.3765011589228331 0.2506192405140397 0
59 0.3410292764741751 0.06593653689748175 0
60 0.577778862260989 0.38861440024381 0
61 0.6589415387381358 0.1309720748658973 0
62 0.6853070364452002 0.4130775575606037 0
63 0.2668373577950841 0.1191494243626082 0
64 0.3218946058641688 0.1912189067515452 0
65 0.407583630738214 0.1767209756615038 0
66 0.460859200704815 0.2343262500272198 0
67 0.4897864719236233 0.1572260797039823 0
68 0.5423665880668377 0.2161619259472435 0
69 0.5702157241446811 0.1428264827469188 0
70 0.619924561871559 0.2038869470436948 0
71 0.5086875651571034 0.2862751049693327 0
72 0.428139376575278 0.08697698672332893 0
73 0.6668117876540405 0.3356139002498173 0
74 0.6115236223565802 0.3284161201437492 0
75 0.6060344149902089 0.06772329852994491 0
76 0.2033470762818134 0.06229546815646936 0
77 0.6353149127111407 0.3907492138256943 0
78 0.4310961717216888 0.3024716821259115 0
79 0.6897660088434329 0.3724048296983236 0
80 0.5236689519098834 0.3932305097423262 0
81 0.2715293615514573 0.04947628588331182 0
82 0.5852858608247435 0.2703083981488242 0
83 0.6504355288003983 0.4255772637046897 0
84 0.6716252523955449 0.05825683955219746 0
85 0.6834853958855939 0.2009034078101532 0
86 0.3548569467600429 0.1322400335020105 0
87 0.5471428742320585 0.3383542407693809 0
$EndNodes
$Elements
174
1 15 2 6 9 9
2 15 2 5 10 10
3 1 2 4 1 1 2
4 1 2 4 7 7 8
5 1 2 3 8 8 25
6 1 2 3 8 25 26
7 1 2 3 8 26 27
8 1 2 3 8 27 28
9 1 2 3 8 28 9
10 1 2 3 9 9 29
11 1 2 3 9 29 10
12 1 2 3 10 10 30
13 1 2 3 10 30 31
14 1 2 3 10 31 11
15 1 2 3 11 11 32
16 1 2 3 11 32 12
17 1 2 3 12 12 33
18 1 2 3 12 33 34
19 1 2 3 12 34 35
20 1 2 3 12 35 36
21 1 2 3 12 36 37
22 1 2 3 12 37 38
23 1 2 3 12 38 1
24 1 2 4 13 2 39
25 1 2 4 13 39 40
26 1 2 4 13 40 41
27 1 2 4 13 41 42
28 1 2 4 13 42 43
29 1 2 4 13 43 44
30 1 2 4 13 44 45
31 1 2 4 13 45 7
32 2 2 2 1 38 13 37
33 2 2 2 1 12 3 32
34 2 2 2 1 4 11 32
35 2 2 2 1 38 1 2
36 2 2 2 1 6 46 9
37 2 2 2 1 17 47 33
38 2 2 2 1 10 52 5
39 2 2 2 1 12 47 3
40 2 2 2 1 21 50 28
41 2 2 2 1 26 51 23
42 2 2 2 1 28 46 21
43 2 2 2 1 27 50 22
44 2 2 2 1 22 51 27
45 2 2 2 1 8 48 7
46 2 2 2 1 25 49 24
47 2 2 2 1 23 49 26
48 2 2 2 1 24 48 25
49 2 2 2 1 18 54 31
50 2 2 2 1 31 53 18
51 2 2 2 1 4 53 11
52 2 2 2 1 30 54 19
53 2 2 2 1 19 52 30
54 2 2 2 1 3 47 17
55 2 2 2 1 18 53 4
56 2 2 2 1 5 52 19
57 2 2 2 1 21 46 6
58 2 2 2 1 7 48 24
59 2 2 2 1 25 48 8
60 2 2 2 1 9 46 28
61 2 2 2 1 30 52 10
62 2 2 2 1 11 53 31
63 2 2 2 1 33 47 12
64 2 2 2 1 19 54 18
65 2 2 2 1 22 50 21
66 2 2 2 1 23 51 22
67 2 2 2 1 24 49 23
68 2 2 2 1 26 49 25
69 2 2 2 1 27 51 26
70 2 2 2 1 28 50 27
71 2 2 2 1 31 54 30
72 2 2 2 1 38 2 13
73 2 2 2 1 32 3 4
74 2 2 2 1 5 29 10
75 2 2 2 1 20 29 5
76 2 2 2 1 9 29 6
77 2 2 2 1 6 29 20
78 2 2 2 1 13 14 37
79 2 2 2 1 36 14 15
80 2 2 2 1 37 14 36
81 2 2 2 1 35 15 16
82 2 2 2 1 36 15 35
83 2 2 2 1 34 16 17
84 2 2 2 1 35 16 34
85 2 2 2 1 34 17 33
86 2 2 1 2 19 83 5
87 2 2 1 2 17 78 3
88 2 2 1 2 3 78 56
89 2 2 1 2 43 72 42
90 2 2 1 2 61 70 69
91 2 2 1 2 77 79 62
92 2 2 1 2 55 72 43
93 2 2 1 2 2 39 13
94 2 2 1 2 42 72 59
95 2 2 1 2 59 86 63
96 2 2 1 2 63 81 59
97 2 2 1 2 74 87 82
98 2 2 1 2 67 72 55
99 2 2 1 2 55 69 67
100 2 2 1 2 14 76 63
101 2 2 1 2 82 87 71
102 2 2 1 2 69 75 61
103 2 2 1 2 65 72 67
104 2 2 1 2 3 56 4
105 2 2 1 2 56 78 71
106 2 2 1 2 76 81 63
107 2 2 1 2 65 66 58
108 2 2 1 2 68 71 66
109 2 2 1 2 65 67 66
110 2 2 1 2 73 77 74
111 2 2 1 2 67 68 66
112 2 2 1 2 64 65 58
113 2 2 1 2 61 85 70
114 2 2 1 2 16 64 58
115 2 2 1 2 65 86 72
116 2 2 1 2 69 70 68
117 2 2 1 2 63 64 15
118 2 2 1 2 14 63 15
119 2 2 1 2 67 69 68
120 2 2 1 2 16 58 17
121 2 2 1 2 21 57 22
122 2 2 1 2 15 64 16
123 2 2 1 2 71 78 66
124 2 2 1 2 44 55 43
125 2 2 1 2 20 62 6
126 2 2 1 2 72 86 59
127 2 2 1 2 23 61 24
128 2 2 1 2 42 59 41
129 2 2 1 2 73 79 77
130 2 2 1 2 71 87 56
131 2 2 1 2 13 76 14
132 2 2 1 2 58 78 17
133 2 2 1 2 55 75 69
134 2 2 1 2 45 75 44
135 2 2 1 2 18 60 19
136 2 2 1 2 68 82 71
137 2 2 1 2 70 85 57
138 2 2 1 2 56 87 80
139 2 2 1 2 74 77 60
140 2 2 1 2 21 73 57
141 2 2 1 2 44 75 55
142 2 2 1 2 63 86 64
143 2 2 1 2 57 85 22
144 2 2 1 2 7 84 45
145 2 2 1 2 23 85 61
146 2 2 1 2 24 84 7
147 2 2 1 2 59 81 41
148 2 2 1 2 40 76 39
149 2 2 1 2 56 80 4
150 2 2 1 2 57 82 70
151 2 2 1 2 4 80 18
152 2 2 1 2 5 62 20
153 2 2 1 2 73 74 57
154 2 2 1 2 66 78 58
155 2 2 1 2 39 76 13
156 2 2 1 2 62 79 6
157 2 2 1 2 60 77 19
158 2 2 1 2 21 79 73
159 2 2 1 2 62 83 77
160 2 2 1 2 45 84 75
161 2 2 1 2 40 81 76
162 2 2 1 2 70 82 68
163 2 2 1 2 41 81 40
164 2 2 1 2 64 86 65
165 2 2 1 2 75 84 61
166 2 2 1 2 18 80 60
167 2 2 1 2 77 83 19
168 2 2 1 2 22 85 23
169 2 2 1 2 61 84 24
170 2 2 1 2 74 82 57
171 2 2 1 2 5 83 62
172 2 2 1 2 60 87 74
173 2 2 1 2 80 87 60
174 2 2 1 2 6 79 21
$EndElements
